# File created by Blade
# Date/Time:  Fri Jan 16 19:14:41 2015
#---------------------------------------------------------
:version 1.10
:name HOM
:units
  mass 1.0
  length 1.000000
  angle deg
:documentation
     Acclaim Skeleton File
:root
   axis xyz
   order TX TY TZ RX RY RZ
   position 0.000000 0.000000 0.000000
   orientation 0 0 0
:bonedata
   begin
      id 1
      name Spine_dum
      direction 0.000000 1.000000 0.000000
      length 7.067664
      axis 0.0 0.0 0.0 xyz
   end
   begin
      id 2
      name LeftUpLeg_dum
      direction 1.000000 0.000000 0.000000
      length 4.013002
      axis 0.0 0.0 0.0 xyz
   end
   begin
      id 3
      name RightUpLeg_dum
      direction -1.000000 0.000000 0.000000
      length 4.013002
      axis 0.0 0.0 0.0 xyz
   end
   begin
      id 4
      name Spine
      direction 0.000000 1.000000 0.000000
      length 0.000000
      axis 0.0 0.0 0.0 xyz
      dof rx ry rz
   end
   begin
      id 5
      name Spine_dum1
      direction 0.000000 1.000000 0.000000
      length 15.039886
      axis 0.0 0.0 0.0 xyz
   end
   begin
      id 6
      name Spine_dum2
      direction 0.000000 1.000000 0.000000
      length 10.530368
      axis 0.0 0.0 0.0 xyz
   end
   begin
      id 7
      name Spine_dum3
      direction 0.000000 1.000000 0.000000
      length 10.530368
      axis 0.0 0.0 0.0 xyz
   end
   begin
      id 8
      name Head
      direction 0.000000 1.000000 0.000000
      length 4.527550
      axis 0.0 0.0 0.0 xyz
      dof rx ry rz
   end
   begin
      id 9
      name LeftShoulder
      direction 1.000000 0.000000 0.000000
      length 7.028855
      axis 0.0 0.0 -90.0 xyz
      dof rx ry rz
   end
   begin
      id 10
      name LeftArm
      direction 1.000000 0.000000 0.000000
      length 10.797705
      axis 0.0 0.0 -90.0 xyz
      dof rx ry rz
   end
   begin
      id 11
      name LeftForeArm
      direction 1.000000 0.000000 0.000000
      length 7.907442
      axis 0.0 0.0 -90.0 xyz
      dof ry rz rx
   end
   begin
      id 12
      name LeftHand
      direction 0.000000 0.000000 0.000000
      length 0.000000
      axis 0.0 0.0 -90.0 xyz
      dof rx ry rz
   end
   begin
      id 13
      name LeftHand_dum1
      direction 0.000000 0.000000 0.000000
      length 0.000000
      axis 0.0 0.0 -90.0 xyz
   end
   begin
      id 14
      name LeftHand_dum2
      direction 1.000000 0.000000 0.000000
      length 3.937000
      axis 0.0 0.0 -90.0 xyz
   end
   begin
      id 15
      name LeftHandThumb1
      direction 0.000000 0.000000 1.000000
      length 3.937000
      axis 0.0 0.0 -90.0 xyz
      dof rx rz ry
   end
   begin
      id 16
      name RightShoulder
      direction -1.000000 0.000000 0.000000
      length 7.028855
      axis 0.0 0.0 90.0 xyz
      dof rx ry rz
   end
   begin
      id 17
      name RightArm
      direction -1.000000 0.000000 0.000000
      length 10.797705
      axis 0.0 0.0 90.0 xyz
      dof rx ry rz
   end
   begin
      id 18
      name RightForeArm
      direction -1.000000 0.000000 0.000000
      length 7.907442
      axis 0.0 0.0 90.0 xyz
      dof ry rz rx
   end
   begin
      id 19
      name RightHand
      direction 0.000000 0.000000 0.000000
      length 0.000000
      axis 0.0 0.0 90.0 xyz
      dof rx ry rz
   end
   begin
      id 20
      name RightHand_dum1
      direction 0.000000 0.000000 0.000000
      length 0.000000
      axis 0.0 0.0 90.0 xyz
   end
   begin
      id 21
      name RightHand_dum2
      direction -1.000000 0.000000 0.000000
      length 3.937000
      axis 0.0 0.0 90.0 xyz
   end
   begin
      id 22
      name RightHandThumb1
      direction 0.000000 0.000000 1.000000
      length 3.937000
      axis 0.0 0.0 90.0 xyz
      dof rx rz ry
   end
   begin
      id 23
      name LeftUpLeg
      direction 0.000000 -1.000000 0.000000
      length 16.899758
      axis 0.0 0.0 0.0 xyz
      dof rx ry rz
   end
   begin
      id 24
      name LeftLeg
      direction 0.000000 -1.000000 0.000000
      length 17.389183
      axis 0.0 0.0 0.0 xyz
      dof rx ry rz
   end
   begin
      id 25
      name LeftFoot
      direction 0.000000 -0.258819 0.965926
      length 4.924528
      axis 15.0 0.0 0.0 xyz
      dof rx ry rz
   end
   begin
      id 26
      name LeftToeBase
      direction 0.000000 0.000000 1.000000
      length 2.952750
      axis 0.0 0.0 0.0 xyz
      dof rx ry rz
   end
   begin
      id 27
      name RightUpLeg
      direction 0.000000 -1.000000 0.000000
      length 16.899758
      axis 0.0 0.0 0.0 xyz
      dof rx ry rz
   end
   begin
      id 28
      name RightLeg
      direction 0.000000 -1.000000 0.000000
      length 17.389183
      axis 0.0 0.0 0.0 xyz
      dof rx ry rz
   end
   begin
      id 29
      name RightFoot
      direction 0.000000 -0.258819 0.965926
      length 4.924528
      axis 15.0 0.0 0.0 xyz
      dof rx ry rz
   end
   begin
      id 30
      name RightToeBase
      direction 0.000000 0.000000 1.000000
      length 2.952750
      axis 0.0 0.0 0.0 xyz
      dof rx ry rz
   end
:hierarchy
   begin
      root Spine_dum LeftUpLeg_dum RightUpLeg_dum
      Spine_dum Spine
      LeftUpLeg_dum LeftUpLeg
      RightUpLeg_dum RightUpLeg
      Spine Spine_dum1 Spine_dum2 Spine_dum3
      Spine_dum1 Head
      Spine_dum2 LeftShoulder
      Spine_dum3 RightShoulder
      LeftShoulder LeftArm
      LeftArm LeftForeArm
      LeftForeArm LeftHand
      LeftHand LeftHand_dum1 LeftHand_dum2
      LeftHand_dum1 LeftHandThumb1
      RightShoulder RightArm
      RightArm RightForeArm
      RightForeArm RightHand
      RightHand RightHand_dum1 RightHand_dum2
      RightHand_dum1 RightHandThumb1
      LeftUpLeg LeftLeg
      LeftLeg LeftFoot
      LeftFoot LeftToeBase
      RightUpLeg RightLeg
      RightLeg RightFoot
      RightFoot RightToeBase
   end

# File created by Blade
# Date/Time:  Fri Jan 16 19:14:28 2015
# Frame Rate: 120.000 fps
#------------------------------------------------------
:FULLY-SPECIFIED
:DEGREES
39
root 19.322280 35.520146 -22.696035 -170.211897 -2.755882 -178.667369
Spine -20.276567 0.042078 0.735440
Head 7.338359 -0.864841 2.166354
LeftShoulder -15.154589 -30.267577 22.253372
LeftArm 1.116139 -1.225243 -7.478779
LeftForeArm 5.831239 -0.000000 -2.977661
LeftHand -9.579979 0.000000 -7.797284
LeftHandThumb1 -26.253704 0.000000 33.147579
RightShoulder -13.634284 -6.049119 -11.324929
RightArm 0.431093 42.994125 13.120237
RightForeArm -34.072757 -0.000000 5.321043
RightHand -4.257747 -0.000000 11.793756
RightHandThumb1 -24.326973 -0.000000 -32.862282
LeftUpLeg 0.024455 6.485468 1.461338
LeftLeg -6.561900 -0.000000 0.000000
LeftFoot -21.350458 28.377541 -13.430538
LeftToeBase 25.613605 -0.000000 -0.000000
RightUpLeg -0.989523 -9.171004 1.354714
RightLeg -3.488283 -0.000000 0.000000
RightFoot -21.942971 -24.549579 17.178219
RightToeBase 23.604669 -0.000000 -0.000000
40
root 19.321650 35.520283 -22.692203 -170.200199 -2.745777 -178.668713
Spine -20.270165 0.053008 0.730908
Head 7.328512 -0.854174 2.156320
LeftShoulder -15.166102 -30.268451 22.284667
LeftArm 1.113867 -1.257623 -7.473238
LeftForeArm 5.829519 -0.000000 -2.992229
LeftHand -9.643902 0.000000 -7.786536
LeftHandThumb1 -26.253704 0.000000 33.147579
RightShoulder -13.609687 -6.005543 -11.375673
RightArm 0.351492 43.124570 13.061007
RightForeArm -34.169884 -0.000000 5.283740
RightHand -4.199677 -0.000000 11.749951
RightHandThumb1 -24.326973 -0.000000 -32.862282
LeftUpLeg 0.011922 6.481126 1.449029
LeftLeg -6.582824 -0.000000 0.000000
LeftFoot -21.370432 28.437801 -13.473706
LeftToeBase 25.617765 -0.000000 -0.000000
RightUpLeg -1.002728 -9.152307 1.354121
RightLeg -3.502730 -0.000000 0.000000
RightFoot -21.928844 -24.564736 17.165169
RightToeBase 23.552767 -0.000000 -0.000000
41
root 19.321672 35.520767 -22.688860 -170.192494 -2.734063 -178.667765
Spine -20.258834 0.071230 0.726476
Head 7.298190 -0.849221 2.158940
LeftShoulder -15.163501 -30.304692 22.309753
LeftArm 1.095769 -1.269520 -7.443458
LeftForeArm 5.828407 -0.000000 -3.007399
LeftHand -9.623090 -0.000000 -7.837977
LeftHandThumb1 -26.253704 0.000000 33.147579
RightShoulder -13.591992 -5.967907 -11.419184
RightArm 0.247541 43.305538 12.970808
RightForeArm -34.324549 0.000000 5.298266
RightHand -4.250576 0.000000 11.918826
RightHandThumb1 -24.326973 -0.000000 -32.862282
LeftUpLeg 0.001989 6.478235 1.454678
LeftLeg -6.569759 -0.000000 0.000000
LeftFoot -21.344744 28.390348 -13.453609
LeftToeBase 25.528822 -0.000000 -0.000000
RightUpLeg -1.016887 -9.157173 1.356885
RightLeg -3.503792 -0.000000 0.000000
RightFoot -21.917843 -24.553017 17.141907
RightToeBase 23.581598 -0.000000 -0.000000
42
root 19.321492 35.521117 -22.685634 -170.184663 -2.731227 -178.670232
Spine -20.247612 0.069701 0.720425
Head 7.275833 -0.821992 2.164192
LeftShoulder -15.170219 -30.322076 22.348204
LeftArm 1.076414 -1.314192 -7.422985
LeftForeArm 5.837597 -0.000000 -3.016527
LeftHand -9.588271 -0.000000 -7.885915
LeftHandThumb1 -26.253704 0.000000 33.147579
RightShoulder -13.569765 -5.909501 -11.458989
RightArm 0.158269 43.310650 12.878788
RightForeArm -34.304959 -0.000000 5.309066
RightHand -4.260584 -0.000000 11.942946
RightHandThumb1 -24.326973 -0.000000 -32.862282
LeftUpLeg -0.012573 6.470668 1.450610
LeftLeg -6.567123 -0.000000 0.000000
LeftFoot -21.343883 28.408431 -13.440592
LeftToeBase 25.570622 -0.000000 -0.000000
RightUpLeg -1.025483 -9.175022 1.356952
RightLeg -3.514944 -0.000000 0.000000
RightFoot -21.895381 -24.543038 17.139811
RightToeBase 23.560503 -0.000000 -0.000000
